<svg width="800" height="800" viewBox="60 60 394 394" xmlns="http://www.w3.org/2000/svg"><path d="M450.46 256.09c-1.11-80.92-50.65-153.38-126.46-182.3-76.41-29.12-166.51-4.79-218.18 58.34C54.4 195 46.61 285.58 88.49 355.68c41.8 69.95 123.74 106 203.55 91.63 91-16.37 156.14-98.12 158.35-189.14a20 20 0 0 0 .07-2.08m-331.41-81.71C152.76 118 220.23 87 285 99.43c69.4 13.29 120.43 70.47 128.83 139h-95.42c-8.26-27.36-32-48-62.62-48-29.65 0-55.15 20.65-63.11 48H97.74a158 158 0 0 1 21.31-64.05m167.08 81.72c-2 38.75-60.67 39.4-60.67 0s58.71-38.77 60.67 0m24 149.79c-63.28 22.69-135.13 2.85-177.83-49.07a157.53 157.53 0 0 1-34.57-83h94.87c7.91 27.39 33.7 48 63.19 48 30.67 0 54.36-20.68 62.62-48h95.45c-7.25 59.18-46.32 111.5-103.72 132.07Z"/></svg>